Coordinates
version=1
nRows=16
nColumns=34
inDegrees=no

Units are S.I. units (second, meters, Newtons, ...)
If the header above contains a line with 'inDegrees', this indicates whether rotational values are in degrees (yes) or radians (no).

endheader
time	pelvis_tilt	pelvis_list	pelvis_rotation	pelvis_tx	pelvis_ty	pelvis_tz	hip_flexion_r	hip_adduction_r	hip_rotation_r	knee_angle_r	ankle_angle_r	subtalar_angle_r	mtp_angle_r	hip_flexion_l	hip_adduction_l	hip_rotation_l	knee_angle_l	ankle_angle_l	subtalar_angle_l	mtp_angle_l	lumbar_extension	lumbar_bending	lumbar_rotation	arm_flex_r	arm_add_r	arm_rot_r	elbow_flex_r	pro_sup_r	arm_flex_l	arm_add_l	arm_rot_l	elbow_flex_l	pro_sup_l
60.6339	0.276354	0.218473	3.28722	0.882623	0.7656	-0.963588	0.783424	0.120437	-0.472959	1.06156	0.529425	-0.509765	-0.133286	0.363548	-0.339232	-0.430344	1.34043	-0.556223	-0.34895	-0.133286	0.103965	0.253521	0.043273	1.19193	-0.54492	0.804439	0.882514	2.10417	18.6035	-0.694267	17.963	0.603657	1.38156
60.6539	0.251129	0.195791	3.23374	0.875043	0.773515	-0.964915	0.730289	0.14445	-0.421235	1.03668	0.522205	-0.493077	-0.133286	0.376145	-0.337969	-0.427138	1.38377	-0.558735	-0.310529	-0.133286	0.0727955	0.250036	0.0442608	1.14798	-0.60464	0.771327	0.903663	2.09775	18.6966	-0.724739	17.9206	0.565424	1.34013
60.6739	0.220316	0.175137	3.18668	0.86995	0.781264	-0.96662	0.676035	0.162108	-0.373124	1.01405	0.514312	-0.478216	-0.133286	0.385445	-0.336922	-0.426966	1.43358	-0.559174	-0.285921	-0.133286	0.0361702	0.243691	0.0513479	1.08199	-0.672428	0.711619	0.934253	2.09349	18.8108	-0.758179	17.8955	0.529139	1.31827
60.6939	0.1852	0.156194	3.14714	0.866892	0.788772	-0.968427	0.621206	0.172263	-0.331225	0.99401	0.50688	-0.463515	-0.133286	0.392577	-0.338353	-0.430299	1.48974	-0.560514	-0.27133	-0.133286	-0.00416259	0.233827	0.0633508	0.988918	-0.746167	0.622949	0.973204	2.09216	18.9442	-0.792063	17.8936	0.495685	1.30834
60.7139	0.147528	0.138078	3.11575	0.865392	0.795869	-0.970109	0.567475	0.174765	-0.295863	0.977258	0.500419	-0.450463	-0.133286	0.400173	-0.344383	-0.436411	1.55176	-0.562808	-0.262603	-0.133286	-0.0459225	0.219831	0.0787492	0.864728	-0.821482	0.505659	1.01779	2.09398	19.0915	-0.822692	17.9191	0.467863	1.30167
60.7339	0.109642	0.11952	3.09265	0.865028	0.80233	-0.97152	0.517657	0.170597	-0.265116	0.964574	0.494646	-0.443891	-0.133286	0.41157	-0.355578	-0.443138	1.61793	-0.564912	-0.256682	-0.133286	-0.0864695	0.201044	0.0951689	0.708653	-0.890892	0.36455	1.06427	2.09883	19.243	-0.846236	17.9747	0.45155	1.28552
60.7539	0.0740496	0.0996367	3.07778	0.865515	0.80793	-0.972627	0.474861	0.161828	-0.236345	0.956389	0.488768	-0.449587	-0.133286	0.429625	-0.370392	-0.44713	1.6853	-0.565853	-0.252225	-0.133286	-0.123469	0.177351	0.109565	0.525814	-0.944845	0.210548	1.10925	2.10593	19.3874	-0.859936	18.0605	0.453164	1.24785
60.7738	0.0426594	0.0785708	3.07094	0.866726	0.812509	-0.973489	0.441195	0.150914	-0.208258	0.952587	0.482085	-0.470459	-0.133286	0.455783	-0.385693	-0.444717	1.75068	-0.565234	-0.249984	-0.133286	-0.155668	0.149815	0.119442	0.327721	-0.974734	0.0597218	1.15108	2.11313	19.5193	-0.862363	18.1709	0.473074	1.18833
60.7938	0.0158891	0.0574861	3.07159	0.868662	0.816033	-0.974212	0.416513	0.139588	-0.182252	0.952565	0.474687	-0.503255	-0.133286	0.489578	-0.39857	-0.433073	1.81169	-0.562484	-0.252736	-0.133286	-0.183483	0.12068	0.124807	0.128061	-0.97666	-0.0716779	1.19058	2.11569	19.6526	-0.852501	18.285	0.494223	1.14163
60.8138	-0.00663858	0.0379456	3.07817	0.871302	0.818463	-0.974954	0.399418	0.128575	-0.161328	0.955863	0.467886	-0.539603	-0.133286	0.530134	-0.408849	-0.41087	1.86754	-0.555743	-0.264449	-0.133286	-0.208119	0.092401	0.125552	-0.0559258	-0.951115	-0.165912	1.22829	2.10522	19.7858	-0.832288	18.3929	0.51409	1.11605
60.8338	-0.0258713	0.0207721	3.08791	0.874566	0.819715	-0.9759	0.38825	0.117734	-0.147363	0.962811	0.463621	-0.570918	-0.133286	0.577073	-0.41955	-0.378301	1.91874	-0.541954	-0.289031	-0.133286	-0.230935	0.0664113	0.122033	-0.210887	-0.903262	-0.211895	1.26478	2.06918	19.9102	-0.80601	18.4907	0.537459	1.10932
60.8538	-0.0425503	0.0056339	3.09736	0.87831	0.819621	-0.977202	0.382342	0.10632	-0.139937	0.974843	0.463734	-0.591715	-0.133286	0.630974	-0.435431	-0.337045	1.96591	-0.518103	-0.328074	-0.133286	-0.252563	0.042831	0.114987	-0.330999	-0.841621	-0.20934	1.30099	1.99262	20.0159	-0.779519	18.5787	0.571352	1.1135
60.8738	-0.0569463	-0.00848194	3.10346	0.882326	0.817995	-0.978885	0.381931	0.0934924	-0.136903	0.993707	0.469215	-0.601164	-0.133286	0.692214	-0.460548	-0.290385	2.00744	-0.483053	-0.378731	-0.133286	-0.272844	0.0210947	0.105379	-0.417687	-0.776402	-0.167724	1.33861	1.86392	20.0961	-0.757945	18.6569	0.620017	1.12537
60.8938	-0.0693162	-0.0226412	3.10509	0.886334	0.814764	-0.980813	0.38698	0.0786768	-0.13589	1.02035	0.480145	-0.601492	-0.133286	0.758912	-0.495813	-0.242776	2.0369	-0.438186	-0.433087	-0.133286	-0.291506	0.000597391	0.0939504	-0.477067	-0.717165	-0.101919	1.38004	1.68702	20.1492	-0.74314	18.7223	0.68276	1.14968
60.9138	-0.0801573	-0.0374529	3.10373	0.890006	0.810046	-0.982736	0.396498	0.062038	-0.135189	1.05425	0.495722	-0.596478	-0.133286	0.825376	-0.538093	-0.199595	2.04199	-0.386118	-0.481714	-0.133286	-0.30849	-0.0187898	0.0820771	-0.51822	-0.66985	-0.0281878	1.42733	1.48103	20.1789	-0.730293	18.7662	0.753942	1.19944
60.9338	-0.0894076	-0.0524626	3.10298	0.892932	0.804029	-0.984314	0.409338	0.044923	-0.134268	1.09371	0.514464	-0.591399	-0.133286	0.882708	-0.581344	-0.16687	2.00615	-0.327443	-0.519333	-0.133286	-0.323268	-0.0362691	0.0700515	-0.54885	-0.635727	0.0415622	1.4801	1.26702	20.1907	-0.715401	18.7874	0.826692	1.28349
